<svg width="83" height="83" viewBox="0 0 83 83" fill="none" xmlns="http://www.w3.org/2000/svg">
<g clip-path="url(#clip0_4_34)">
<path d="M41.1 82.2C63.7989 82.2 82.2 63.7989 82.2 41.1C82.2 18.4011 63.7989 0 41.1 0C18.4011 0 0 18.4011 0 41.1C0 63.7989 18.4011 82.2 41.1 82.2Z" fill="white"/>
<path d="M57.7778 15H24.2222C19.6812 15 16 18.9021 16 23.7156V59.2844C16 64.0979 19.6812 68 24.2222 68H57.7778C62.3188 68 66 64.0979 66 59.2844V23.7156C66 18.9021 62.3188 15 57.7778 15Z" fill="#03A10A"/>
<mask id="mask0_4_34" style="mask-type:luminance" maskUnits="userSpaceOnUse" x="29" y="34" width="26" height="15">
<path d="M29.3421 34.4547H54.3191V48.5572H29.3421V34.4547Z" fill="white"/>
</mask>
<g mask="url(#mask0_4_34)">
<path fill-rule="evenodd" clip-rule="evenodd" d="M29.3421 43.8037C30.0717 43.9701 30.7317 43.8705 31.3902 43.7462C33.1144 43.4207 34.6305 42.6056 36.0581 41.6184C37.1288 40.8779 38.149 40.0619 39.1951 39.2842C39.9936 38.6906 40.8009 38.1091 41.5981 37.5136C42.5006 36.8395 43.4403 36.2267 44.4235 35.6822C45.1253 35.2935 45.8522 34.958 46.6244 34.7545C47.1347 34.6199 47.6637 34.5389 48.1893 34.4916C48.6655 34.4487 49.1543 34.4352 49.627 34.4949C50.6066 34.6187 51.5138 34.9608 52.3051 35.5865C52.9552 36.1005 53.4687 36.7303 53.7899 37.4974C53.9849 37.963 54.128 38.4584 54.2326 38.9539C54.3127 39.3331 54.3274 39.7346 54.3154 40.1244C54.2949 40.7978 54.2033 41.4644 53.9493 42.096C53.8075 42.4487 53.6653 42.8012 53.5207 43.1527C53.5073 43.1852 53.4748 43.2095 53.4512 43.2376C53.4237 43.2029 53.3802 43.1721 53.371 43.1329C53.1251 42.0892 52.4973 41.3491 51.59 40.847C50.884 40.4563 50.1165 40.3081 49.3199 40.4015C48.8402 40.4577 48.3515 40.5275 47.8955 40.68C47.0932 40.9482 46.352 41.3573 45.6609 41.8596C44.0579 43.0246 42.6774 44.4406 41.2907 45.8504C40.5531 46.6002 39.7821 47.3096 38.8527 47.8105C38.3966 48.0564 37.9268 48.2759 37.4105 48.3588C36.9396 48.4343 36.4661 48.565 35.9957 48.5569C34.9042 48.538 33.9036 48.2026 32.9918 47.56C31.965 46.8364 31.0558 45.9883 30.2322 45.0409C29.9374 44.7018 29.6774 44.3311 29.4044 43.9724C29.3772 43.9367 29.371 43.8844 29.3421 43.8037Z" fill="white"/>
</g>
<path fill-rule="evenodd" clip-rule="evenodd" d="M39.3333 37.0339C38.9327 37.3215 38.5743 37.586 38.2079 37.8402C37.3273 38.4511 36.462 39.0838 35.5546 39.6577C34.6577 40.2249 33.7201 40.7375 32.6832 41.0585C32.2441 41.1944 31.8075 41.358 31.3555 41.4299C30.9362 41.4966 30.5082 41.5308 30.0656 41.4634C29.4308 41.3667 28.8934 41.1397 28.4703 40.6932C28.1647 40.3706 27.9836 39.9815 27.8296 39.5734C27.6805 39.1786 27.6636 38.7811 27.667 38.3734C27.6716 37.8249 27.8625 37.3283 28.134 36.8555C28.577 36.0842 29.2158 35.4941 30.0339 35.0734C30.505 34.8311 30.9997 34.65 31.5322 34.5781C31.9933 34.5158 32.4591 34.421 32.9197 34.4346C33.4651 34.4508 34.0172 34.5292 34.5479 34.6514C35.1232 34.7839 35.7018 34.9497 36.2344 35.1887C36.9006 35.4878 37.5292 35.8644 38.1585 36.2309C38.5182 36.4403 38.8471 36.6962 39.1897 36.9314C39.2288 36.9583 39.267 36.9865 39.3333 37.0339Z" fill="white"/>
<path fill-rule="evenodd" clip-rule="evenodd" d="M39.3333 50.118C39.5781 50.0211 39.8281 49.9331 40.0668 49.8258C41.2068 49.3134 42.1832 48.6084 43.0921 47.8237C43.9364 47.0947 44.7708 46.3561 45.6365 45.6473C46.5098 44.9323 47.4222 44.248 48.491 43.7693C49.3562 43.3817 50.272 43.1284 51.2699 43.3479C51.9901 43.5064 52.5423 44.0809 52.6433 44.7309C52.7631 45.5019 52.4073 46.1291 51.9286 46.7164C51.3874 47.3802 50.6254 47.8285 49.8595 48.2683C48.9124 48.8121 47.8992 49.2426 46.8398 49.5771C46.2008 49.7789 45.5323 49.9135 44.8696 50.0504C43.548 50.3235 42.2029 50.3719 40.8532 50.3084C40.3468 50.2846 39.8436 50.2091 39.3389 50.1572C39.3371 50.1441 39.3352 50.1311 39.3333 50.118Z" fill="white"/>
</g>
<defs>
<clipPath id="clip0_4_34">
<rect width="82.1" height="82.1" fill="white"/>
</clipPath>
</defs>
</svg>
