<svg width="150" height="25" viewBox="0 0 150 25" fill="none" xmlns="http://www.w3.org/2000/svg">
<g clip-path="url(#clip0_3_19)">
<path d="M20.3243 0H4C1.79086 0 0 1.79086 0 4V20.3243C0 22.5335 1.79086 24.3243 4 24.3243H20.3243C22.5335 24.3243 24.3243 22.5335 24.3243 20.3243V4C24.3243 1.79086 22.5335 0 20.3243 0Z" fill="#03A10A"/>
<mask id="mask0_3_19" style="mask-type:luminance" maskUnits="userSpaceOnUse" x="6" y="8" width="13" height="8">
<path d="M6.49075 8.92873H18.6417V15.4011H6.49075V8.92873Z" fill="white"/>
</mask>
<g mask="url(#mask0_3_19)">
<path fill-rule="evenodd" clip-rule="evenodd" d="M6.49075 13.2194C6.84571 13.2958 7.16676 13.2501 7.4871 13.193C8.32592 13.0437 9.0635 12.6696 9.758 12.2165C10.2789 11.8767 10.7752 11.5021 11.2841 11.1452C11.6726 10.8728 12.0653 10.6059 12.4531 10.3326C12.8922 10.0232 13.3493 9.74198 13.8276 9.49207C14.1691 9.3137 14.5227 9.15973 14.8984 9.0663C15.1466 9.00457 15.404 8.96739 15.6597 8.94568C15.8913 8.92599 16.1291 8.91977 16.3591 8.94718C16.8357 9.00399 17.277 9.16099 17.662 9.44815C17.9782 9.68405 18.228 9.9731 18.3843 10.3252C18.4791 10.5389 18.5487 10.7662 18.5997 10.9936C18.6386 11.1677 18.6457 11.3519 18.6399 11.5308C18.6299 11.8399 18.5854 12.1458 18.4618 12.4357C18.3929 12.5976 18.3237 12.7594 18.2533 12.9207C18.2468 12.9356 18.231 12.9467 18.2195 12.9596C18.2061 12.9437 18.185 12.9296 18.1805 12.9116C18.0608 12.4326 17.7554 12.0929 17.314 11.8625C16.9706 11.6831 16.5972 11.6152 16.2097 11.658C15.9763 11.6838 15.7386 11.7159 15.5167 11.7858C15.1264 11.9089 14.7658 12.0967 14.4296 12.3272C13.6498 12.8619 12.9782 13.5117 12.3036 14.1588C11.9447 14.5029 11.5697 14.8285 11.1175 15.0584C10.8956 15.1712 10.6671 15.272 10.4159 15.31C10.1868 15.3447 9.95648 15.4047 9.72763 15.4009C9.19661 15.3923 8.70986 15.2383 8.2663 14.9434C7.76677 14.6113 7.32445 14.2221 6.92379 13.7873C6.78036 13.6316 6.65386 13.4615 6.52108 13.2969C6.50785 13.2805 6.50481 13.2565 6.49075 13.2194Z" fill="white"/>
</g>
<path fill-rule="evenodd" clip-rule="evenodd" d="M11.3514 10.1124C11.1564 10.2444 10.9821 10.3658 10.8039 10.4825C10.3754 10.7629 9.95447 11.0533 9.51306 11.3166C9.07675 11.5769 8.6206 11.8122 8.11614 11.9595C7.90256 12.0219 7.69013 12.097 7.47023 12.13C7.26625 12.1606 7.05805 12.1763 6.84272 12.1454C6.53392 12.101 6.27245 11.9968 6.06664 11.7919C5.91795 11.6438 5.82988 11.4652 5.75494 11.278C5.68243 11.0967 5.67421 10.9143 5.67586 10.7272C5.67807 10.4755 5.77094 10.2476 5.90305 10.0306C6.11854 9.67659 6.42929 9.40578 6.82731 9.21267C7.05648 9.10149 7.29714 9.01836 7.5562 8.98536C7.78053 8.95677 8.00713 8.91327 8.2312 8.91952C8.49654 8.92693 8.76511 8.96292 9.0233 9.01902C9.30317 9.07983 9.58468 9.1559 9.84374 9.26561C10.1678 9.40286 10.4736 9.57569 10.7798 9.74391C10.9548 9.84003 11.1148 9.95748 11.2815 10.0654C11.3005 10.0777 11.3191 10.0907 11.3514 10.1124Z" fill="white"/>
<path fill-rule="evenodd" clip-rule="evenodd" d="M11.3513 16.1174C11.4704 16.0729 11.592 16.0325 11.7082 15.9833C12.2628 15.7481 12.7378 15.4246 13.1799 15.0645C13.5907 14.7299 13.9966 14.3909 14.4178 14.0656C14.8426 13.7374 15.2865 13.4234 15.8064 13.2037C16.2273 13.0258 16.6729 12.9095 17.1583 13.0103C17.5087 13.083 17.7773 13.3467 17.8265 13.645C17.8847 13.9989 17.7117 14.2867 17.4788 14.5562C17.2155 14.8609 16.8448 15.0666 16.4722 15.2685C16.0114 15.5181 15.5185 15.7156 15.0031 15.8692C14.6923 15.9618 14.3671 16.0235 14.0447 16.0864C13.4017 16.2117 12.7474 16.2339 12.0908 16.2048C11.8444 16.1939 11.5996 16.1592 11.3541 16.1354C11.3532 16.1294 11.3523 16.1234 11.3513 16.1174Z" fill="white"/>
<path d="M32.517 20V2.54545H36.2074V16.9574H43.6903V20H32.517ZM52.032 20.2557C50.6854 20.2557 49.5263 19.983 48.5547 19.4375C47.5888 18.8864 46.8445 18.108 46.3217 17.1023C45.799 16.0909 45.5376 14.8949 45.5376 13.5142C45.5376 12.1676 45.799 10.9858 46.3217 9.96875C46.8445 8.9517 47.5803 8.15909 48.5291 7.59091C49.4837 7.02273 50.603 6.73864 51.8871 6.73864C52.7507 6.73864 53.5547 6.87784 54.299 7.15625C55.049 7.42898 55.7024 7.84091 56.2592 8.39205C56.8217 8.94318 57.2592 9.63636 57.5717 10.4716C57.8842 11.3011 58.0405 12.2727 58.0405 13.3864V14.3835H46.9865V12.1335H54.6229C54.6229 11.6108 54.5092 11.1477 54.282 10.7443C54.0547 10.3409 53.7393 10.0256 53.3359 9.7983C52.9382 9.56534 52.4751 9.44886 51.9467 9.44886C51.3956 9.44886 50.907 9.5767 50.4808 9.83239C50.0604 10.0824 49.7308 10.4205 49.4922 10.8466C49.2536 11.267 49.1314 11.7358 49.1257 12.2528V14.392C49.1257 15.0398 49.245 15.5994 49.4837 16.071C49.728 16.5426 50.0717 16.9062 50.5149 17.1619C50.9581 17.4176 51.4837 17.5455 52.0916 17.5455C52.495 17.5455 52.8643 17.4886 53.1996 17.375C53.5348 17.2614 53.8217 17.0909 54.0604 16.8636C54.299 16.6364 54.4808 16.358 54.6058 16.0284L57.9638 16.25C57.7933 17.0568 57.4439 17.7614 56.9155 18.3636C56.3928 18.9602 55.7166 19.4261 54.8871 19.7614C54.0632 20.0909 53.1115 20.2557 52.032 20.2557ZM66.3246 20.2557C64.9837 20.2557 63.8303 19.9716 62.8643 19.4034C61.9041 18.8295 61.1655 18.0341 60.6484 17.017C60.1371 16 59.8814 14.8295 59.8814 13.5057C59.8814 12.1648 60.1399 10.9886 60.657 9.97727C61.1797 8.96023 61.9212 8.16761 62.8814 7.59943C63.8416 7.02557 64.9837 6.73864 66.3075 6.73864C67.4496 6.73864 68.4496 6.94602 69.3075 7.36079C70.1655 7.77557 70.8445 8.35795 71.3445 9.10795C71.8445 9.85795 72.12 10.7386 72.1712 11.75H68.745C68.6484 11.0966 68.3928 10.571 67.978 10.1733C67.5689 9.76989 67.032 9.56818 66.3672 9.56818C65.8047 9.56818 65.3132 9.72159 64.8928 10.0284C64.478 10.3295 64.1541 10.7699 63.9212 11.3494C63.6882 11.929 63.5717 12.6307 63.5717 13.4545C63.5717 14.2898 63.6854 15 63.9126 15.5852C64.1456 16.1705 64.4723 16.6165 64.8928 16.9233C65.3132 17.2301 65.8047 17.3835 66.3672 17.3835C66.782 17.3835 67.1541 17.2983 67.4837 17.1278C67.8189 16.9574 68.0945 16.7102 68.3104 16.3864C68.532 16.0568 68.6768 15.6619 68.745 15.2017H72.1712C72.1143 16.2017 71.8416 17.0824 71.353 17.8438C70.87 18.5994 70.2024 19.1903 69.3501 19.6165C68.4979 20.0426 67.4893 20.2557 66.3246 20.2557ZM74.5639 2.54545H79.1151L83.9219 14.2727H84.1264L88.9332 2.54545H93.4844V20H89.9048V8.6392H89.7599L85.2429 19.9148H82.8054L78.2884 8.59659H78.1435V20H74.5639V2.54545ZM102.354 25.1818C101.178 25.1818 100.17 25.0199 99.3288 24.696C98.4936 24.3778 97.8288 23.9432 97.3345 23.392C96.8402 22.8409 96.5192 22.2216 96.3714 21.5341L99.7294 21.0824C99.8317 21.3438 99.9936 21.5881 100.215 21.8153C100.437 22.0426 100.729 22.2244 101.093 22.3608C101.462 22.5028 101.911 22.5739 102.44 22.5739C103.229 22.5739 103.88 22.3807 104.391 21.9943C104.908 21.6136 105.167 20.9744 105.167 20.0767V17.6818H105.013C104.854 18.0455 104.616 18.3892 104.298 18.7131C103.979 19.0369 103.57 19.3011 103.07 19.5057C102.57 19.7102 101.974 19.8125 101.281 19.8125C100.298 19.8125 99.4027 19.5852 98.5959 19.1307C97.7947 18.6705 97.1555 17.9687 96.6783 17.0256C96.2067 16.0767 95.9709 14.8778 95.9709 13.429C95.9709 11.946 96.2124 10.7074 96.6953 9.71307C97.1783 8.71875 97.8203 7.97443 98.6214 7.48011C99.4283 6.9858 100.312 6.73864 101.272 6.73864C102.005 6.73864 102.619 6.86364 103.113 7.11364C103.607 7.35795 104.005 7.66477 104.306 8.03409C104.613 8.39773 104.849 8.75568 105.013 9.10795H105.15V6.90909H108.755V20.1278C108.755 21.2415 108.482 22.1733 107.937 22.9233C107.391 23.6733 106.636 24.2358 105.67 24.6108C104.71 24.9915 103.604 25.1818 102.354 25.1818ZM102.431 17.0852C103.016 17.0852 103.511 16.9403 103.914 16.6506C104.323 16.3551 104.636 15.9347 104.852 15.3892C105.073 14.8381 105.184 14.179 105.184 13.4119C105.184 12.6449 105.076 11.9801 104.86 11.4176C104.644 10.8494 104.332 10.4091 103.923 10.0966C103.513 9.78409 103.016 9.62784 102.431 9.62784C101.835 9.62784 101.332 9.78977 100.923 10.1136C100.513 10.4318 100.204 10.875 99.9936 11.4432C99.7834 12.0114 99.6783 12.6676 99.6783 13.4119C99.6783 14.1676 99.7834 14.821 99.9936 15.3722C100.21 15.9176 100.519 16.3409 100.923 16.642C101.332 16.9375 101.835 17.0852 102.431 17.0852ZM118.607 6.90909V9.63636H110.724V6.90909H118.607ZM112.513 3.77273H116.144V15.9773C116.144 16.3125 116.195 16.5739 116.298 16.7614C116.4 16.9432 116.542 17.071 116.724 17.1449C116.911 17.2187 117.127 17.2557 117.371 17.2557C117.542 17.2557 117.712 17.2415 117.883 17.2131C118.053 17.179 118.184 17.1534 118.275 17.1364L118.846 19.8381C118.664 19.8949 118.408 19.9602 118.079 20.0341C117.749 20.1136 117.349 20.1619 116.877 20.179C116.002 20.2131 115.235 20.0966 114.576 19.8295C113.923 19.5625 113.414 19.1477 113.05 18.5852C112.687 18.0227 112.508 17.3125 112.513 16.4545V3.77273Z" fill="black"/>
</g>
<defs>
<clipPath id="clip0_3_19">
<rect width="150" height="25" fill="white"/>
</clipPath>
</defs>
</svg>
